<?xml version="1.0" encoding="UTF-8" standalone="no"?>
<!-- Created with Inkscape (http://www.inkscape.org/) -->

<svg
   xmlns:dc="http://purl.org/dc/elements/1.1/"
   xmlns:cc="http://creativecommons.org/ns#"
   xmlns:rdf="http://www.w3.org/1999/02/22-rdf-syntax-ns#"
   xmlns:svg="http://www.w3.org/2000/svg"
   xmlns="http://www.w3.org/2000/svg"
   xmlns:sodipodi="http://sodipodi.sourceforge.net/DTD/sodipodi-0.dtd"
   xmlns:inkscape="http://www.inkscape.org/namespaces/inkscape"
   width="748.53906"
   height="714.17731"
   id="svg2"
   version="1.1"
   inkscape:version="0.48.4 r9939"
   sodipodi:docname="fusion-model.png">
  <sodipodi:namedview
     id="base"
     pagecolor="#ffffff"
     bordercolor="#666666"
     borderopacity="1.0"
     inkscape:pageopacity="0.0"
     inkscape:pageshadow="2"
     inkscape:zoom="0.7"
     inkscape:cx="206.50799"
     inkscape:cy="402.13273"
     inkscape:document-units="px"
     inkscape:current-layer="layer1"
     showgrid="false"
     inkscape:window-width="1535"
     inkscape:window-height="876"
     inkscape:window-x="65"
     inkscape:window-y="24"
     inkscape:window-maximized="1"
     fit-margin-left="3"
     fit-margin-right="3"
     fit-margin-top="3"
     fit-margin-bottom="3" />
  <defs
     id="defs4">
    <marker
       style="overflow:visible"
       id="Tail"
       refX="0"
       refY="0"
       orient="auto"
       inkscape:stockid="Tail">
      <g
         transform="scale(-1.2,-1.2)"
         id="g3917">
        <path
           style="fill:none;stroke:#000000;stroke-width:0.80000001;stroke-linecap:round"
           d="M -3.8048674,-3.9585227 0.54352094,0"
           id="path3919"
           inkscape:connector-curvature="0" />
        <path
           style="fill:none;stroke:#000000;stroke-width:0.80000001;stroke-linecap:round"
           d="M -1.2866832,-3.9585227 3.0617053,0"
           id="path3921"
           inkscape:connector-curvature="0" />
        <path
           style="fill:none;stroke:#000000;stroke-width:0.80000001;stroke-linecap:round"
           d="M 1.3053582,-3.9585227 5.6537466,0"
           id="path3923"
           inkscape:connector-curvature="0" />
        <path
           style="fill:none;stroke:#000000;stroke-width:0.80000001;stroke-linecap:round"
           d="M -3.8048674,4.1775838 0.54352094,0.21974226"
           id="path3925"
           inkscape:connector-curvature="0" />
        <path
           style="fill:none;stroke:#000000;stroke-width:0.80000001;stroke-linecap:round"
           d="M -1.2866832,4.1775838 3.0617053,0.21974226"
           id="path3927"
           inkscape:connector-curvature="0" />
        <path
           style="fill:none;stroke:#000000;stroke-width:0.80000001;stroke-linecap:round"
           d="M 1.3053582,4.1775838 5.6537466,0.21974226"
           id="path3929"
           inkscape:connector-curvature="0" />
      </g>
    </marker>
    <marker
       style="overflow:visible"
       id="Arrow1Lend"
       refX="0"
       refY="0"
       orient="auto"
       inkscape:stockid="Arrow1Lend">
      <path
         transform="matrix(-0.8,0,0,-0.8,-10,0)"
         style="fill-rule:evenodd;stroke:#000000;stroke-width:1pt"
         d="M 0,0 5,-5 -12.5,0 5,5 0,0 z"
         id="path3884"
         inkscape:connector-curvature="0" />
    </marker>
    <marker
       style="overflow:visible"
       id="Arrow1Lend8"
       refX="0"
       refY="0"
       orient="auto"
       inkscape:stockid="Arrow1Lend8">
      <path
         transform="matrix(-0.8,0,0,-0.8,-10,0)"
         style="fill:#0b775e;fill-rule:evenodd;stroke:#0b775e;stroke-width:1pt"
         d="M 0,0 5,-5 -12.5,0 5,5 0,0 z"
         id="path5124"
         inkscape:connector-curvature="0" />
    </marker>
    <marker
       style="overflow:visible"
       id="Arrow1LendR"
       refX="0"
       refY="0"
       orient="auto"
       inkscape:stockid="Arrow1LendR">
      <path
         transform="matrix(-0.8,0,0,-0.8,-10,0)"
         style="fill:#0b775e;fill-rule:evenodd;stroke:#0b775e;stroke-width:1pt"
         d="M 0,0 5,-5 -12.5,0 5,5 0,0 z"
         id="path5236"
         inkscape:connector-curvature="0" />
    </marker>
    <marker
       style="overflow:visible"
       id="Arrow1LendD"
       refX="0"
       refY="0"
       orient="auto"
       inkscape:stockid="Arrow1LendD">
      <path
         transform="matrix(-0.8,0,0,-0.8,-10,0)"
         style="fill:#d8b70a;fill-rule:evenodd;stroke:#d8b70a;stroke-width:1pt"
         d="M 0,0 5,-5 -12.5,0 5,5 0,0 z"
         id="path5351"
         inkscape:connector-curvature="0" />
    </marker>
    <marker
       style="overflow:visible"
       id="Arrow1Lend9"
       refX="0"
       refY="0"
       orient="auto"
       inkscape:stockid="Arrow1Lend9">
      <path
         transform="matrix(-0.8,0,0,-0.8,-10,0)"
         style="fill:#d8b70a;fill-rule:evenodd;stroke:#d8b70a;stroke-width:1pt"
         d="M 0,0 5,-5 -12.5,0 5,5 0,0 z"
         id="path5470"
         inkscape:connector-curvature="0" />
    </marker>
    <marker
       style="overflow:visible"
       id="Arrow1Lenda"
       refX="0"
       refY="0"
       orient="auto"
       inkscape:stockid="Arrow1Lenda">
      <path
         transform="matrix(-0.8,0,0,-0.8,-10,0)"
         style="fill:#800080;fill-rule:evenodd;stroke:#800080;stroke-width:1pt"
         d="M 0,0 5,-5 -12.5,0 5,5 0,0 z"
         id="path5593"
         inkscape:connector-curvature="0" />
    </marker>
    <marker
       style="overflow:visible"
       id="Arrow1Lendr"
       refX="0"
       refY="0"
       orient="auto"
       inkscape:stockid="Arrow1Lendr">
      <path
         transform="matrix(-0.8,0,0,-0.8,-10,0)"
         style="fill:#0b775e;fill-rule:evenodd;stroke:#0b775e;stroke-width:1pt"
         d="M 0,0 5,-5 -12.5,0 5,5 0,0 z"
         id="path5720"
         inkscape:connector-curvature="0" />
    </marker>
    <marker
       style="overflow:visible"
       id="Arrow1LendK"
       refX="0"
       refY="0"
       orient="auto"
       inkscape:stockid="Arrow1LendK">
      <path
         transform="matrix(-0.8,0,0,-0.8,-10,0)"
         style="fill:#ff00ff;fill-rule:evenodd;stroke:#ff00ff;stroke-width:1pt"
         d="M 0,0 5,-5 -12.5,0 5,5 0,0 z"
         id="path5851"
         inkscape:connector-curvature="0" />
    </marker>
    <marker
       style="overflow:visible"
       id="Arrow1LendRz"
       refX="0"
       refY="0"
       orient="auto"
       inkscape:stockid="Arrow1LendRz">
      <path
         transform="matrix(-0.8,0,0,-0.8,-10,0)"
         style="fill:#ff6600;fill-rule:evenodd;stroke:#ff6600;stroke-width:1pt"
         d="M 0,0 5,-5 -12.5,0 5,5 0,0 z"
         id="path5986"
         inkscape:connector-curvature="0" />
    </marker>
    <marker
       style="overflow:visible"
       id="Arrow1LendKL"
       refX="0"
       refY="0"
       orient="auto"
       inkscape:stockid="Arrow1LendKL">
      <path
         transform="matrix(-0.8,0,0,-0.8,-10,0)"
         style="fill:#d8b70a;fill-rule:evenodd;stroke:#d8b70a;stroke-width:1pt"
         d="M 0,0 5,-5 -12.5,0 5,5 0,0 z"
         id="path6125"
         inkscape:connector-curvature="0" />
    </marker>
    <marker
       style="overflow:visible"
       id="Arrow1Lendad"
       refX="0"
       refY="0"
       orient="auto"
       inkscape:stockid="Arrow1Lendad">
      <path
         transform="matrix(-0.8,0,0,-0.8,-10,0)"
         style="fill:#053061;fill-rule:evenodd;stroke:#053061;stroke-width:1pt"
         d="M 0,0 5,-5 -12.5,0 5,5 0,0 z"
         id="path6268"
         inkscape:connector-curvature="0" />
    </marker>
    <marker
       style="overflow:visible"
       id="Arrow1LendRzd"
       refX="0"
       refY="0"
       orient="auto"
       inkscape:stockid="Arrow1LendRzd">
      <path
         transform="matrix(-0.8,0,0,-0.8,-10,0)"
         style="fill:#cd2626;fill-rule:evenodd;stroke:#cd2626;stroke-width:1pt"
         d="M 0,0 5,-5 -12.5,0 5,5 0,0 z"
         id="path6415"
         inkscape:connector-curvature="0" />
    </marker>
  </defs>
  <metadata
     id="metadata7">
    <rdf:RDF>
      <cc:Work
         rdf:about="">
        <dc:format>image/svg+xml</dc:format>
        <dc:type
           rdf:resource="http://purl.org/dc/dcmitype/StillImage" />
        <dc:title></dc:title>
      </cc:Work>
    </rdf:RDF>
  </metadata>
  <g
     id="layer1"
     inkscape:groupmode="layer"
     inkscape:label="Layer 1"
     transform="translate(1.507993,-169.09243)">
    <flowRoot
       xml:space="preserve"
       id="flowRoot3835"
       style="font-size:12px;font-style:normal;font-weight:normal;line-height:125%;letter-spacing:0px;word-spacing:0px;fill:#000000;fill-opacity:1;stroke:none;font-family:Helvetica;-inkscape-font-specification:Helvetica"
       transform="translate(-262.23776,248.00463)"><flowRegion
         id="flowRegion3837"><rect
           id="rect3839"
           width="114.28571"
           height="88.571426"
           x="317.14285"
           y="245.21933" /></flowRegion><flowPara
         id="flowPara3841"
         style="font-size:80px;font-weight:bold;text-align:center;text-anchor:middle;fill:#86b8b1;fill-opacity:1;font-family:Minion Pro;-inkscape-font-specification:Minion Pro Bold">XXY</flowPara></flowRoot>    <path
       transform="matrix(0,1,-1,0,944.96466,299.03824)"
       d="m 341.42857,315.21933 a 114.28571,114.28571 0 1 1 -228.57143,0 114.28571,114.28571 0 1 1 228.57143,0 z"
       sodipodi:ry="114.28571"
       sodipodi:rx="114.28571"
       sodipodi:cy="315.21933"
       sodipodi:cx="227.14285"
       id="path2987"
       style="fill:#3d1c00;fill-opacity:1;stroke:none"
       sodipodi:type="arc" />
    <path
       transform="matrix(0,1,-1,0,967.8218,144.03824)"
       d="m 468.57143,338.79074 a 86.428574,86.428574 0 1 1 -172.85715,0 86.428574,86.428574 0 1 1 172.85715,0 z"
       sodipodi:ry="86.428574"
       sodipodi:rx="86.428574"
       sodipodi:cy="338.79074"
       sodipodi:cx="382.14285"
       id="path3759"
       style="fill:#ffffff;fill-opacity:1;stroke:none"
       sodipodi:type="arc" />
    <path
       transform="matrix(0,1,-1,0,430.99705,299.03824)"
       d="m 341.42857,315.21933 a 114.28571,114.28571 0 1 1 -228.57143,0 114.28571,114.28571 0 1 1 228.57143,0 z"
       sodipodi:ry="114.28571"
       sodipodi:rx="114.28571"
       sodipodi:cy="315.21933"
       sodipodi:cx="227.14285"
       id="path3773"
       style="fill:#3d1c00;fill-opacity:1;stroke:none"
       sodipodi:type="arc" />
    <path
       transform="matrix(0,1,-1,0,453.85419,144.03824)"
       d="m 468.57143,338.79074 a 86.428574,86.428574 0 1 1 -172.85715,0 86.428574,86.428574 0 1 1 172.85715,0 z"
       sodipodi:ry="86.428574"
       sodipodi:rx="86.428574"
       sodipodi:cy="338.79074"
       sodipodi:cx="382.14285"
       id="path3775"
       style="fill:#ffffff;fill-opacity:1;stroke:none"
       sodipodi:type="arc" />
    <g
       transform="matrix(0,1,-1,0,657.26657,-83.621849)"
       id="g3765">
      <path
         transform="translate(142.85714,-30)"
         d="m 341.42857,315.21933 c 0,63.11826 -51.16746,114.28571 -114.28572,114.28571 -63.11825,0 -114.28571,-51.16745 -114.28571,-114.28571 0,-63.11826 51.16746,-114.28571 114.28571,-114.28571 63.11826,0 114.28572,51.16745 114.28572,114.28571 z"
         sodipodi:ry="114.28571"
         sodipodi:rx="114.28571"
         sodipodi:cy="315.21933"
         sodipodi:cx="227.14285"
         id="path3767"
         style="fill:#f2d694;fill-opacity:1;stroke:none"
         sodipodi:type="arc" />
      <path
         transform="translate(-12.14286,-52.857143)"
         d="m 468.57143,338.79074 c 0,47.73318 -38.69539,86.42857 -86.42858,86.42857 -47.73318,0 -86.42857,-38.69539 -86.42857,-86.42857 0,-47.73318 38.69539,-86.42857 86.42857,-86.42857 47.73319,0 86.42858,38.69539 86.42858,86.42857 z"
         sodipodi:ry="86.428574"
         sodipodi:rx="86.428574"
         sodipodi:cy="338.79074"
         sodipodi:cx="382.14285"
         id="path3769"
         style="fill:#ffffff;fill-opacity:1;stroke:none"
         sodipodi:type="arc" />
    </g>
    <g
       transform="matrix(0,1,-1,0,657.26657,395.98405)"
       id="g3777">
      <path
         transform="translate(142.85714,-30)"
         d="m 341.42857,315.21933 c 0,63.11826 -51.16746,114.28571 -114.28572,114.28571 -63.11825,0 -114.28571,-51.16745 -114.28571,-114.28571 0,-63.11826 51.16746,-114.28571 114.28571,-114.28571 63.11826,0 114.28572,51.16745 114.28572,114.28571 z"
         sodipodi:ry="114.28571"
         sodipodi:rx="114.28571"
         sodipodi:cy="315.21933"
         sodipodi:cx="227.14285"
         id="path3779"
         style="fill:#f2d694;fill-opacity:1;stroke:none"
         sodipodi:type="arc" />
      <path
         transform="translate(-12.14286,-52.857143)"
         d="m 468.57143,338.79074 c 0,47.73318 -38.69539,86.42857 -86.42858,86.42857 -47.73318,0 -86.42857,-38.69539 -86.42857,-86.42857 0,-47.73318 38.69539,-86.42857 86.42857,-86.42857 47.73319,0 86.42858,38.69539 86.42858,86.42857 z"
         sodipodi:ry="86.428574"
         sodipodi:rx="86.428574"
         sodipodi:cy="338.79074"
         sodipodi:cx="382.14285"
         id="path3781"
         style="fill:#ffffff;fill-opacity:1;stroke:none"
         sodipodi:type="arc" />
    </g>
    <flowRoot
       transform="translate(-2.2377598,-10.566797)"
       style="font-size:70px;font-style:normal;font-weight:normal;line-height:125%;letter-spacing:0px;word-spacing:0px;fill:#000000;fill-opacity:1;stroke:none;font-family:Helvetica;-inkscape-font-specification:Helvetica"
       id="flowRoot3821"
       xml:space="preserve"><flowRegion
         id="flowRegion3823"><rect
           style="font-size:70px"
           y="245.21933"
           x="317.14285"
           height="88.571426"
           width="114.28571"
           id="rect3825" /></flowRegion><flowPara
         style="font-size:70px;font-style:normal;font-variant:normal;font-weight:600;font-stretch:normal;text-align:center;text-anchor:middle;fill:#86b8b1;fill-opacity:1;font-family:Latin Modern Sans Demi Cond;-inkscape-font-specification:Latin Modern Sans Demi Cond Semi-Bold"
         id="flowPara3827">XY</flowPara></flowRoot>    <flowRoot
       xml:space="preserve"
       id="flowRoot3851"
       style="font-size:70px;font-style:normal;font-variant:normal;font-weight:600;font-stretch:normal;line-height:125%;letter-spacing:0px;word-spacing:0px;fill:#000000;fill-opacity:1;stroke:none;font-family:Latin Modern Sans Demi Cond;-inkscape-font-specification:Latin Modern Sans Demi Cond Semi-Bold"
       transform="translate(-285.29639,234.17025)"><flowRegion
         id="flowRegion3853"><rect
           style="font-size:70px;font-style:normal;font-variant:normal;font-weight:600;font-stretch:normal;font-family:Latin Modern Sans Demi Cond;-inkscape-font-specification:Latin Modern Sans Demi Cond Semi-Bold"
           id="rect3855"
           width="165.71428"
           height="87.142868"
           x="317.14285"
           y="245.21933" /></flowRegion><flowPara
         id="flowPara3857"
         style="font-size:70px;font-style:normal;font-variant:normal;font-weight:600;font-stretch:normal;text-align:center;text-anchor:middle;fill:#86b8b1;fill-opacity:1;font-family:Latin Modern Sans Demi Cond;-inkscape-font-specification:Latin Modern Sans Demi Cond Semi-Bold">XXY</flowPara></flowRoot>    <flowRoot
       xml:space="preserve"
       id="flowRoot3859"
       style="font-size:70px;font-style:normal;font-variant:normal;font-weight:600;font-stretch:normal;line-height:125%;letter-spacing:0px;word-spacing:0px;fill:#000000;fill-opacity:1;stroke:none;font-family:Latin Modern Sans Demi Cond;-inkscape-font-specification:Latin Modern Sans Demi Cond Semi-Bold"
       transform="translate(-7.637213,473.9732)"><flowRegion
         id="flowRegion3861"><rect
           style="font-size:70px;font-style:normal;font-variant:normal;font-weight:600;font-stretch:normal;font-family:Latin Modern Sans Demi Cond;-inkscape-font-specification:Latin Modern Sans Demi Cond Semi-Bold"
           id="rect3863"
           width="122.85713"
           height="90.000015"
           x="317.14285"
           y="245.21933" /></flowRegion><flowPara
         id="flowPara3865"
         style="font-size:70px;font-style:normal;font-variant:normal;font-weight:600;font-stretch:normal;text-align:center;text-anchor:middle;fill:#fa2a00;fill-opacity:1;font-family:Latin Modern Sans Demi Cond;-inkscape-font-specification:Latin Modern Sans Demi Cond Semi-Bold">ZW</flowPara></flowRoot>    <flowRoot
       transform="translate(216.48723,234.17025)"
       style="font-size:12px;font-style:normal;font-weight:normal;line-height:125%;letter-spacing:0px;word-spacing:0px;fill:#000000;fill-opacity:1;stroke:none;font-family:Helvetica;-inkscape-font-specification:Helvetica"
       id="flowRoot3867"
       xml:space="preserve"><flowRegion
         id="flowRegion3869"><rect
           y="245.21933"
           x="317.14285"
           height="92.85717"
           width="188.57143"
           id="rect3871" /></flowRegion><flowPara
         style="font-size:70px;font-style:normal;font-variant:normal;font-weight:600;font-stretch:normal;text-align:center;text-anchor:middle;fill:#fa2a00;fill-opacity:1;font-family:Latin Modern Sans Demi Cond;-inkscape-font-specification:Latin Modern Sans Demi Cond Semi-Bold"
         id="flowPara3873">ZWW</flowPara></flowRoot>    <path
       inkscape:connector-curvature="0"
       id="path4709"
       d="M 269.33393,351.02826 C 185.2375,423.6961 185.2375,423.6961 185.2375,423.6961"
       style="fill:#800080;stroke:#053061;stroke-width:3;stroke-linecap:butt;stroke-linejoin:miter;stroke-miterlimit:4;stroke-opacity:1;stroke-dasharray:none;marker-end:url(#Arrow1Lendad)" />
    <path
       style="fill:none;stroke:#0b775e;stroke-width:3;stroke-linecap:butt;stroke-linejoin:miter;stroke-miterlimit:4;stroke-opacity:1;stroke-dasharray:none;marker-end:url(#Arrow1Lendr)"
       d="m 205.2375,443.6961 c 84.09643,-72.66784 84.09643,-72.66784 84.09643,-72.66784"
       id="path4901"
       inkscape:connector-curvature="0" />
    <path
       inkscape:connector-curvature="0"
       id="path4903"
       d="m 190.9518,621.02824 c 72.66784,84.09643 72.66784,84.09643 72.66784,84.09643"
       style="fill:none;stroke:#d8b70a;stroke-width:3;stroke-linecap:butt;stroke-linejoin:miter;stroke-miterlimit:4;stroke-opacity:1;stroke-dasharray:none;marker-end:url(#Arrow1Lend9)" />
    <path
       style="fill:#ff6600;stroke:#cd2626;stroke-width:3;stroke-linecap:butt;stroke-linejoin:miter;stroke-miterlimit:4;stroke-opacity:1;stroke-dasharray:none;marker-end:url(#Arrow1LendRzd)"
       d="m 478.09464,703.6961 c 84.09643,-72.66783 84.09643,-72.66783 84.09643,-72.66783"
       id="path4905"
       inkscape:connector-curvature="0" />
    <path
       inkscape:connector-curvature="0"
       id="path4907"
       d="m 542.19107,608.17113 c -84.09643,72.66783 -84.09643,72.66783 -84.09643,72.66783"
       style="fill:#ff00ff;stroke:#d8b70a;stroke-width:3;stroke-linecap:butt;stroke-linejoin:miter;stroke-miterlimit:4;stroke-opacity:1;stroke-dasharray:none;marker-end:url(#Arrow1LendKL)" />
    <path
       inkscape:connector-curvature="0"
       id="path4909"
       d="M 547.90535,436.55326 C 475.23752,352.45683 475.23752,352.45683 475.23752,352.45683"
       style="fill:none;stroke:#0b775e;stroke-width:3;stroke-linecap:butt;stroke-linejoin:miter;stroke-miterlimit:4;stroke-opacity:1;stroke-dasharray:none;marker-end:url(#Arrow1Lend8)" />
    <path
       inkscape:connector-curvature="0"
       id="path4913"
       d="m 357.14286,648.28497 0,-236.98842"
       style="fill:none;stroke:#0b775e;stroke-width:3;stroke-linecap:butt;stroke-linejoin:miter;stroke-miterlimit:4;stroke-opacity:1;stroke-dasharray:none;marker-end:url(#Arrow1LendR)" />
    <path
       style="fill:none;stroke:#d8b70a;stroke-width:3;stroke-linecap:butt;stroke-linejoin:miter;stroke-miterlimit:4;stroke-opacity:1;stroke-dasharray:none;marker-end:url(#Arrow1LendD)"
       d="m 387.42857,407.01084 0,236.98842"
       id="path5109"
       inkscape:connector-curvature="0" />
  </g>
</svg>
